PathFileType	4	(X/Y/Z)	C:\Users\Basilio\Documents\Thesis Gigler\squatting_fais\c3dfiles\077\SLS_front_pre3\markers_experimental.trc
DataRate	CameraRate	NumFrames	NumMarkers	Units	OrigDataRate	OrigDataStartFrame	OrigNumFrames
200.000000	200.000000	4	60	mm	200.000000	366	1466
Frame#	Time	FHD			LBHD			RBHD			C7			T10			CLAV			LSHO			LUUPA			LMUPA			LDUPA			LLEP			LMEP			LRAD			LUL			LRFIN			RSHO			RUPA1			RMUPA			RDUPA			RLEP			RMEP			RUL			RUFIN			LASI			RASI			USACR			LSACR			RSACR			LTHI1			LTHI2			LTHI3			LTHI4			LLFC			LMFC			LTIB1			LTIB2			LTIB3			LTIB4			LLMAL			LHEE			LMT1			LMT2			LMT5			RTHI			RTHI2			RTHI3			RTHI4			RLFC			RMFC			RTIB1			RTIB2			RTIB3			RTIB4			RLMAL			RMMAL			RHEE			RMT1			RMT2			RMT5			RRAD			
		X1	Y1	Z1	X2	Y2	Z2	X3	Y3	Z3	X4	Y4	Z4	X5	Y5	Z5	X6	Y6	Z6	X7	Y7	Z7	X8	Y8	Z8	X9	Y9	Z9	X10	Y10	Z10	X11	Y11	Z11	X12	Y12	Z12	X13	Y13	Z13	X14	Y14	Z14	X15	Y15	Z15	X16	Y16	Z16	X17	Y17	Z17	X18	Y18	Z18	X19	Y19	Z19	X20	Y20	Z20	X21	Y21	Z21	X22	Y22	Z22	X23	Y23	Z23	X24	Y24	Z24	X25	Y25	Z25	X26	Y26	Z26	X27	Y27	Z27	X28	Y28	Z28	X29	Y29	Z29	X30	Y30	Z30	X31	Y31	Z31	X32	Y32	Z32	X33	Y33	Z33	X34	Y34	Z34	X35	Y35	Z35	X36	Y36	Z36	X37	Y37	Z37	X38	Y38	Z38	X39	Y39	Z39	X40	Y40	Z40	X41	Y41	Z41	X42	Y42	Z42	X43	Y43	Z43	X44	Y44	Z44	X45	Y45	Z45	X46	Y46	Z46	X47	Y47	Z47	X48	Y48	Z48	X49	Y49	Z49	X50	Y50	Z50	X51	Y51	Z51	X52	Y52	Z52	X53	Y53	Z53	X54	Y54	Z54	X55	Y55	Z55	X56	Y56	Z56	X57	Y57	Z57	X58	Y58	Z58	X59	Y59	Z59	X60	Y60	Z60	

367	1.83	-340.9407043457032	1786.713989257813	-1090.383178710938	-471.2763061523439	1670.257568359375	-1165.35107421875	-480.1799926757814	1661.65673828125	-1018.914001464844	-507.050994873047	1520.428100585938	-1102.549682617188	-479.5356445312501	1182.771118164063	-1075.951904296875	-338.4635925292969	1492.176513671875	-1093.377075195313	-359.4666748046876	1520.114868164063	-1269.2587890625	-181.9293670654297	1462.759521484375	-1357.431274414063	-154.5835266113282	1495.953735351563	-1332.040161132813	-113.2003707885742	1460.276245117188	-1359.752685546875	-48.5596389770508	1470.517822265625	-1352.542724609375	-45.81482315063477	1402.056884765625	-1319.50634765625	235.3177185058594	1499.373657226563	-1216.271850585938	244.1382751464844	1508.343139648438	-1295.153442382813	331.8696594238282	1529.813598632813	-1218.19775390625	-358.9889526367188	1527.177124023438	-929.4388427734377	-200.754379272461	1493.832641601563	-822.0390625000002	-174.2631530761719	1519.485107421875	-855.9698486328127	-130.7755432128907	1495.17529296875	-821.0071411132815	-65.22253417968751	1501.439819335938	-830.6365966796877	-60.50336837768556	1426.566040039063	-853.7680664062502	229.5162658691407	1535.253295898438	-860.7719726562502	314.5409240722657	1539.982299804688	-941.8355102539065	-252.6515045166016	1013.563232421875	-1187.49365234375	-282.8722229003907	1052.118774414063	-911.9145507812502	-471.4511108398439	1066.79052734375	-1063.50830078125	-468.7698669433595	1035.799194335938	-1091.361450195313	-475.4093017578126	1034.091552734375	-1036.439697265625	-270.0018005371094	790.8593750000002	-1237.004516601563	-220.9644317626954	721.8216552734376	-1239.774169921875	-174.2255401611328	736.1968383789064	-1241.041015625	-232.3370056152344	665.6032104492189	-1219.836547851563	-170.3540344238282	528.1904296875001	-1196.246337890625	-138.2888946533203	520.3244628906251	-1069.2353515625	-194.7393646240235	316.3648376464844	-1091.347900390625	-246.2463684082032	273.9206542968751	-1151.12158203125	-216.2956695556641	268.3233642578126	-1117.241088867188	-246.0869445800782	203.6566925048829	-1069.584350585938	-344.6734619140626	105.7001037597657	-1091.573364257813	-404.9717712402345	82.24925231933595	-1028.479736328125	-189.8192749023438	56.76359939575197	-1057.398193359375	-202.859603881836	39.43764877319337	-1103.626831054688	-309.1162414550782	127.2892837524414	-1010.976928710938	-97.11676025390628	817.205505371094	-833.3292236328127	-30.42150688171387	819.1091918945315	-835.843688964844	-13.2313928604126	847.1989746093752	-843.2031860351565	18.5068645477295	752.6602783203126	-844.9529418945315	68.25233459472658	710.0752563476564	-843.423278808594	96.847282409668	716.4584350585939	-970.7681884765627	196.2297668457032	639.0649414062501	-857.8221435546877	198.4690399169922	538.9426879882814	-821.6145629882815	233.1526031494141	562.5012817382814	-842.9174804687502	264.9462890625001	530.6810302734376	-881.7387695312502	332.1231994628907	350.6229858398438	-834.1816406250002	346.0326843261719	372.4598693847657	-922.6348876953127	315.9908447265626	274.1444091796876	-890.4729003906252	484.1502990722657	428.0642700195314	-881.4578247070315	479.6586303710939	426.0570068359376	-843.1070556640627	480.7845153808595	397.1325683593751	-796.4312133789065	218.3319396972657	1518.622802734375	-940.1806640625002	
368	1.835	-341.1338500976563	1786.15087890625	-1090.748657226563	-470.8663024902345	1668.659790039063	-1165.529174804688	-479.9533081054689	1660.616821289063	-1018.982055664063	-506.6299438476564	1519.492797851563	-1102.707763671875	-479.6716308593751	1181.882080078125	-1075.833618164063	-337.9560852050782	1491.205078125	-1093.413818359375	-359.3105773925782	1519.100463867188	-1269.327514648438	-181.6940612792969	1461.674072265625	-1357.528442382813	-154.0872039794922	1494.677734375	-1332.042724609375	-112.9518661499024	1459.067260742188	-1359.7861328125	-48.81354141235353	1469.678833007813	-1352.725830078125	-45.61558914184571	1401.026123046875	-1319.311889648438	235.5948028564454	1498.4521484375	-1216.400512695313	245.0210266113282	1507.315185546875	-1295.304321289063	331.8632812500001	1529.4052734375	-1218.324951171875	-358.6582031250001	1526.212036132813	-929.565856933594	-200.5044708251954	1493.317138671875	-821.5738525390627	-173.9608154296875	1518.51953125	-856.0214843750002	-130.531723022461	1494.20654296875	-821.0819091796877	-64.91187286376955	1500.745361328125	-830.676452636719	-60.14942169189455	1425.671142578125	-853.7730102539065	229.7456054687501	1534.311767578125	-860.8325805664065	314.8334350585938	1539.085571289063	-941.9993286132815	-253.5282897949219	1011.916320800781	-1186.12548828125	-282.8967895507813	1051.103271484375	-911.8380126953127	-471.679412841797	1065.592163085938	-1063.420166015625	-470.4252319335939	1034.984130859375	-1090.87744140625	-477.6673889160157	1033.048828125	-1036.112670898438	-269.6949768066407	790.0459594726565	-1237.041748046875	-220.4285583496094	721.2800903320314	-1240.202880859375	-173.6620330810547	736.1343383789064	-1242.084594726563	-231.7969207763672	664.8956909179689	-1220.337524414063	-169.0425262451172	527.6727905273439	-1196.750244140625	-137.3580169677735	519.9270629882814	-1069.690185546875	-194.0860290527344	315.8547668457032	-1091.87939453125	-246.0463867187501	273.5958862304688	-1151.4580078125	-215.7718505859376	268.0402526855469	-1117.691650390625	-245.8408966064454	203.3404235839844	-1069.92919921875	-344.4864196777344	105.5182876586914	-1091.757446289063	-405.0342102050782	82.26123809814455	-1028.6376953125	-189.8868865966797	56.77988815307619	-1057.500854492188	-202.8564910888672	39.3361930847168	-1103.685424804688	-308.9528198242188	127.2754287719727	-1011.184692382813	-97.10762023925784	816.1970214843752	-833.211608886719	-30.448637008667	818.1577148437502	-835.902282714844	-13.14883518218994	846.5046386718752	-843.037536621094	18.38778114318848	751.5603027343751	-844.9200439453127	68.25596618652345	709.2000732421876	-843.428405761719	96.83853912353518	715.6284179687501	-970.730895996094	196.1113586425782	638.3511962890626	-857.861511230469	198.5936584472657	538.4867553710939	-821.6947021484377	233.4846954345704	561.6975708007814	-842.9097290039065	265.1036682128907	529.7609252929689	-881.721618652344	332.2467651367188	349.6715087890626	-834.1931152343752	346.6951599121094	371.8779907226563	-922.567077636719	316.1362609863282	273.3288574218751	-890.509460449219	484.0540161132814	427.2995605468751	-881.4966430664065	479.7405700683595	425.4614257812501	-843.039733886719	480.8619995117189	396.5813903808595	-796.342956542969	218.7486877441407	1517.558715820313	-940.3201293945315	
369	1.84	-341.1507873535157	1785.47216796875	-1090.962646484375	-470.6065063476564	1667.8251953125	-1165.58935546875	-479.5854797363282	1660.1025390625	-1019.369323730469	-506.4139404296876	1518.534790039063	-1102.800048828125	-479.705291748047	1180.895263671875	-1075.885498046875	-337.7034301757813	1490.224975585938	-1093.520263671875	-359.2918701171876	1517.920532226563	-1269.427368164063	-181.6632385253907	1460.565185546875	-1357.769409179688	-154.0404052734375	1493.735107421875	-1332.291259765625	-113.0735321044922	1458.162963867188	-1360.096435546875	-48.70605468750001	1468.305297851563	-1352.822387695313	-45.37919616699219	1399.958984375	-1319.5615234375	235.7238464355469	1497.481689453125	-1216.635498046875	244.9851684570313	1506.347412109375	-1295.549072265625	332.3392944335938	1528.712036132813	-1218.531494140625	-358.7697143554688	1525.3955078125	-929.8486328125002	-200.2001647949219	1492.34130859375	-821.6600341796877	-173.5967712402344	1517.6142578125	-856.145690917969	-130.2884368896485	1493.4169921875	-821.2900390625002	-64.64997863769533	1499.7216796875	-830.9311523437502	-59.96300125122072	1424.759765625	-853.9897460937502	229.8913879394532	1533.5478515625	-861.112976074219	314.9783630371094	1538.129150390625	-942.1320800781252	-253.1448364257813	1011.256408691406	-1186.999633789063	-283.2986145019532	1049.75390625	-911.8071289062502	-471.7184448242189	1064.571044921875	-1063.328002929688	-470.6997985839845	1034.14111328125	-1090.835083007813	-477.729705810547	1031.951049804688	-1036.021728515625	-269.3137817382813	789.0986938476565	-1237.393676757813	-219.9636840820313	720.8397827148439	-1240.631591796875	-173.0603332519532	735.5178222656251	-1242.565551757813	-230.790756225586	664.0454101562501	-1220.78271484375	-168.2844543457032	527.3350219726564	-1197.447387695313	-136.4678497314453	519.3910522460939	-1070.241088867188	-193.4977722167969	315.5050659179688	-1092.330200195313	-245.7324676513672	273.3575134277344	-1151.732299804688	-215.4321289062501	267.6555786132813	-1118.278564453125	-245.5310974121094	203.1996612548829	-1070.369506835938	-344.3933105468751	105.3960113525391	-1091.929931640625	-404.9885559082032	82.25368499755861	-1028.753784179688	-189.878158569336	56.65722656250001	-1057.51806640625	-202.8000946044922	39.34525680541993	-1103.7041015625	-308.8903808593751	127.2845764160157	-1011.422241210938	-97.21243286132815	815.1517333984377	-833.3340454101565	-30.52640533447266	817.3068847656252	-835.9077148437502	-13.37647914886475	845.4334106445315	-843.014099121094	18.47861671447754	750.8664550781251	-844.7612304687502	68.22213745117189	708.2248535156251	-843.456481933594	96.95973968505862	714.7675170898439	-970.6666259765627	196.2840270996094	637.3276367187501	-857.8354492187502	198.4682617187501	536.9633789062501	-821.561950683594	233.4795379638672	560.9163818359376	-842.904479980469	265.1760253906251	528.9538574218751	-881.6729736328127	332.4913940429688	349.0000000000001	-834.1258544921877	346.0958557128907	371.1519470214844	-922.4587402343752	316.3451843261719	272.5960693359376	-890.5000610351565	484.428924560547	427.4375915527345	-881.5137329101565	481.2766113281251	426.4483642578126	-843.2612915039065	480.9165039062501	395.8386840820314	-796.3049316406252	218.9625854492188	1516.837768554688	-940.4846801757815	
370	1.845	-340.0916442871094	1783.465087890625	-1090.87109375	-470.6545715332032	1666.989624023438	-1165.766967773438	-479.3815002441407	1658.365478515625	-1019.315124511719	-506.1593627929689	1517.33447265625	-1102.943603515625	-479.8305969238282	1179.953857421875	-1075.779296875	-337.5694885253907	1489.000366210938	-1093.621337890625	-358.8947143554688	1516.885375976563	-1269.52734375	-181.23388671875	1459.438110351563	-1357.856689453125	-153.7777252197266	1492.53955078125	-1332.353515625	-112.4474792480469	1456.923706054688	-1360.130126953125	-48.25351333618165	1467.363159179688	-1352.85791015625	-45.06063461303712	1398.874267578125	-1319.712280273438	236.0039367675782	1496.51806640625	-1216.82373046875	245.0085754394532	1505.512817382813	-1295.807006835938	332.4409179687501	1527.443481445313	-1218.819213867188	-358.4099731445313	1524.489013671875	-929.9855957031252	-199.9232635498047	1491.170043945313	-822.3540649414065	-173.5350799560547	1516.700561523438	-856.3222656250002	-130.1466674804688	1492.365844726563	-821.442810058594	-64.41249847412111	1498.687255859375	-831.0122680664065	-59.65425109863283	1423.810913085938	-854.1125488281252	230.2832794189454	1532.743041992188	-861.1531982421877	315.2975463867188	1537.31689453125	-942.2734985351565	-254.3674926757813	1010.022155761719	-1186.150024414063	-283.3907165527344	1048.702026367188	-911.6387939453127	-471.9059448242189	1063.433837890625	-1063.211181640625	-470.8370666503907	1033.046875	-1090.688232421875	-478.1277770996095	1030.8828125	-1035.978393554688	-269.2619628906251	788.3902587890627	-1237.827514648438	-219.4492645263672	719.8691406250001	-1241.01513671875	-172.5025177001953	734.8734130859376	-1242.838989257813	-229.9089813232422	663.1929931640626	-1221.144287109375	-167.033920288086	526.4170532226564	-1197.874389648438	-135.6364898681641	518.8692016601564	-1070.814575195313	-192.8322448730469	314.9288024902344	-1092.712646484375	-245.3442840576172	272.9690246582032	-1152.174682617188	-214.9581604003907	267.3334045410157	-1118.672973632813	-245.3798370361329	202.9733428955079	-1070.933959960938	-344.4188842773438	105.2797927856446	-1092.114379882813	-405.0271301269532	82.2715301513672	-1028.851440429688	-189.9474182128907	57.71835327148439	-1057.949462890625	-202.8248291015626	39.21899032592774	-1103.789672851563	-308.8043823242188	127.2546691894532	-1011.65771484375	-97.29438018798831	814.172302246094	-833.266784667969	-30.60156250000001	816.2212524414065	-835.711853027344	-13.44410705566407	844.5549316406252	-842.8885498046877	17.93072509765625	749.2014160156251	-845.1154785156252	68.21006011962892	707.3913574218751	-843.3713989257815	97.01624298095706	713.9536743164064	-970.6494750976565	196.3943176269532	636.5733642578126	-857.7580566406252	198.5908508300782	536.2255859375001	-821.5026855468752	233.5506134033204	559.9600219726564	-842.8648071289065	265.4109497070313	528.2579956054689	-881.6268310546877	332.6622314453126	348.4652099609376	-834.0581665039065	346.1099548339844	370.2080078125001	-922.7334594726565	316.6392211914063	271.9399108886719	-890.5640258789065	484.6072387695314	426.9505004882814	-881.444763183594	481.1398010253907	425.4778137207032	-843.272888183594	481.0664062500001	395.3170166015626	-796.1544189453127	219.6100616455079	1515.97021484375	-941.2664184570315	
